<svg xmlns="http://www.w3.org/2000/svg" viewBox="0 0 940 420" font-family="Segoe UI, Arial, sans-serif">
  <defs>
  </defs>

  <rect width="940" height="420" rx="20" fill="#fafafa" stroke="#e5e7eb" stroke-width="1.5"/>

  <text x="470" y="34" text-anchor="middle" font-size="18" font-weight="700" fill="#1e293b">Optimizer Paths in a Narrow Valley</text>
  <text x="470" y="56" text-anchor="middle" font-size="12" fill="#64748b">Same gradients, different update rules, very different travel paths</text>

  <rect x="34" y="88" width="560" height="276" rx="18" fill="#ffffff" stroke="#e5e7eb" stroke-width="1.5"/>
  <g stroke="#cbd5e1" fill="none">
    <path d="M70 132 C170 50, 240 260, 360 190 C470 130, 540 280, 650 175" stroke-width="3"/>
    <path d="M70 176 C170 94, 240 304, 360 234 C470 174, 540 324, 650 219" stroke-width="3"/>
    <path d="M70 220 C170 138, 240 348, 360 278 C470 218, 540 368, 650 263" stroke-width="3"/>
  </g>
  <path d="M100 132 L155 250 L220 150 L285 238 L350 168 L415 230 L480 182 L540 214" fill="none" stroke="#ef4444" stroke-width="3.5" stroke-linecap="round" stroke-linejoin="round"/>
  <path d="M100 140 L170 214 L240 170 L310 204 L380 184 L450 194 L515 188 L540 186" fill="none" stroke="#3b82f6" stroke-width="3.5" stroke-linecap="round" stroke-linejoin="round"/>
  <path d="M100 148 L172 198 L246 180 L320 191 L394 186 L468 188 L532 186 L540 186" fill="none" stroke="#10b981" stroke-width="3.5" stroke-linecap="round" stroke-linejoin="round"/>
  <path d="M100 154 L178 188 L255 185 L332 188 L410 187 L490 186 L540 186" fill="none" stroke="#f59e0b" stroke-width="4" stroke-linecap="round" stroke-linejoin="round"/>
  <circle r="7" fill="#ef4444">
    <animateMotion dur="5.5s" repeatCount="indefinite" path="M100 132 L155 250 L220 150 L285 238 L350 168 L415 230 L480 182 L540 214"/>
  </circle>
  <circle r="7" fill="#3b82f6">
    <animateMotion dur="5.5s" repeatCount="indefinite" path="M100 140 L170 214 L240 170 L310 204 L380 184 L450 194 L515 188 L540 186"/>
  </circle>
  <circle r="7" fill="#10b981">
    <animateMotion dur="5.5s" repeatCount="indefinite" path="M100 148 L172 198 L246 180 L320 191 L394 186 L468 188 L532 186 L540 186"/>
  </circle>
  <circle r="7" fill="#f59e0b">
    <animateMotion dur="5.5s" repeatCount="indefinite" path="M100 154 L178 188 L255 185 L332 188 L410 187 L490 186 L540 186"/>
  </circle>
  <circle cx="540" cy="186" r="12" fill="#111827"/>
  <text x="540" y="190" text-anchor="middle" font-size="9" font-weight="700" fill="#ffffff">min</text>

  <rect x="622" y="88" width="284" height="276" rx="18" fill="#ffffff" stroke="#e5e7eb" stroke-width="1.5"/>
  <text x="764" y="114" text-anchor="middle" font-size="14" font-weight="700" fill="#1e293b">Legend</text>

  <rect x="646" y="136" width="236" height="40" rx="12" fill="#fef2f2" stroke="#ef4444" stroke-width="1.2"/>
  <text x="684" y="160" font-size="12" font-weight="700" fill="#b91c1c">SGD</text>
  <text x="756" y="160" font-size="11" fill="#475569">large zig-zags, slow settling</text>

  <rect x="646" y="188" width="236" height="40" rx="12" fill="#eff6ff" stroke="#3b82f6" stroke-width="1.2"/>
  <text x="684" y="212" font-size="12" font-weight="700" fill="#1d4ed8">Momentum</text>
  <text x="774" y="212" font-size="11" fill="#475569">keeps useful direction</text>

  <rect x="646" y="240" width="236" height="40" rx="12" fill="#ecfdf5" stroke="#10b981" stroke-width="1.2"/>
  <text x="684" y="264" font-size="12" font-weight="700" fill="#047857">RMSProp</text>
  <text x="764" y="264" font-size="11" fill="#475569">adjusts step size per weight</text>

  <rect x="646" y="292" width="236" height="40" rx="12" fill="#fffbeb" stroke="#f59e0b" stroke-width="1.2"/>
  <text x="684" y="316" font-size="12" font-weight="700" fill="#b45309">Adam</text>
  <text x="748" y="316" font-size="11" fill="#475569">direction + adaptation together</text>

  <text x="470" y="392" text-anchor="middle" font-size="11" fill="#64748b">Momentum smooths direction. RMSProp rescales steps. Adam combines both.</text>
</svg>