<svg xmlns="http://www.w3.org/2000/svg" viewBox="0 0 800 400">
  <rect width="800" height="400" fill="#fafafa" rx="16"/>

  <text x="400" y="30" text-anchor="middle" font-family="Segoe UI" font-size="18" font-weight="bold" fill="#1e293b">np.sum() — axis=0 vs axis=1</text>

  <!-- Original Matrix -->
  <text x="400" y="62" text-anchor="middle" font-family="Segoe UI" font-weight="600" font-size="14" fill="#64748b">Array a (3×3)</text>
  <g transform="translate(310,72)">
    <rect width="50" height="30" fill="#e0e7ff" stroke="#6366f1" stroke-width="1" rx="4"/>
    <rect x="52" width="50" height="30" fill="#e0e7ff" stroke="#6366f1" stroke-width="1" rx="4"/>
    <rect x="104" width="50" height="30" fill="#e0e7ff" stroke="#6366f1" stroke-width="1" rx="4"/>
    <rect y="32" width="50" height="30" fill="#d1fae5" stroke="#10b981" stroke-width="1" rx="4"/>
    <rect x="52" y="32" width="50" height="30" fill="#d1fae5" stroke="#10b981" stroke-width="1" rx="4"/>
    <rect x="104" y="32" width="50" height="30" fill="#d1fae5" stroke="#10b981" stroke-width="1" rx="4"/>
    <rect y="64" width="50" height="30" fill="#fef3c7" stroke="#f59e0b" stroke-width="1" rx="4"/>
    <rect x="52" y="64" width="50" height="30" fill="#fef3c7" stroke="#f59e0b" stroke-width="1" rx="4"/>
    <rect x="104" y="64" width="50" height="30" fill="#fef3c7" stroke="#f59e0b" stroke-width="1" rx="4"/>
    <text x="25" y="20" text-anchor="middle" font-family="Consolas" font-size="14" fill="#4338ca">1</text>
    <text x="77" y="20" text-anchor="middle" font-family="Consolas" font-size="14" fill="#4338ca">2</text>
    <text x="129" y="20" text-anchor="middle" font-family="Consolas" font-size="14" fill="#4338ca">3</text>
    <text x="25" y="52" text-anchor="middle" font-family="Consolas" font-size="14" fill="#047857">4</text>
    <text x="77" y="52" text-anchor="middle" font-family="Consolas" font-size="14" fill="#047857">5</text>
    <text x="129" y="52" text-anchor="middle" font-family="Consolas" font-size="14" fill="#047857">6</text>
    <text x="25" y="84" text-anchor="middle" font-family="Consolas" font-size="14" fill="#b45309">7</text>
    <text x="77" y="84" text-anchor="middle" font-family="Consolas" font-size="14" fill="#b45309">8</text>
    <text x="129" y="84" text-anchor="middle" font-family="Consolas" font-size="14" fill="#b45309">9</text>
  </g>

  <!-- axis=0: Sum rows (downward) -->
  <rect x="40" y="200" width="340" height="180" rx="12" fill="#f0f9ff" stroke="#38bdf8" stroke-width="1.5"/>
  <text x="210" y="225" text-anchor="middle" font-family="Consolas" font-weight="bold" font-size="14" fill="#0284c7">axis=0 → Sum rows ↓</text>

  <text x="210" y="252" text-anchor="middle" font-family="Segoe UI" font-size="12" fill="#64748b">"Collapse rows together"</text>

  <g transform="translate(90,264)">
    <rect width="55" height="26" fill="#e0e7ff" stroke="#6366f1" stroke-width="1" rx="3"/>
    <text x="28" y="18" text-anchor="middle" font-family="Consolas" font-size="12" fill="#4338ca">1</text>
    <rect width="55" y="28" height="26" fill="#d1fae5" stroke="#10b981" stroke-width="1" rx="3"/>
    <text x="28" y="46" text-anchor="middle" font-family="Consolas" font-size="12" fill="#047857">4</text>
    <rect width="55" y="56" height="26" fill="#fef3c7" stroke="#f59e0b" stroke-width="1" rx="3"/>
    <text x="28" y="74" text-anchor="middle" font-family="Consolas" font-size="12" fill="#b45309">7</text>
    <text x="28" y="96" text-anchor="middle" font-family="Consolas" font-weight="bold" font-size="13" fill="#1e293b">= 12</text>
  </g>
  <g transform="translate(160,264)">
    <rect width="55" height="26" fill="#e0e7ff" stroke="#6366f1" stroke-width="1" rx="3"/>
    <text x="28" y="18" text-anchor="middle" font-family="Consolas" font-size="12" fill="#4338ca">2</text>
    <rect width="55" y="28" height="26" fill="#d1fae5" stroke="#10b981" stroke-width="1" rx="3"/>
    <text x="28" y="46" text-anchor="middle" font-family="Consolas" font-size="12" fill="#047857">5</text>
    <rect width="55" y="56" height="26" fill="#fef3c7" stroke="#f59e0b" stroke-width="1" rx="3"/>
    <text x="28" y="74" text-anchor="middle" font-family="Consolas" font-size="12" fill="#b45309">8</text>
    <text x="28" y="96" text-anchor="middle" font-family="Consolas" font-weight="bold" font-size="13" fill="#1e293b">= 15</text>
  </g>
  <g transform="translate(230,264)">
    <rect width="55" height="26" fill="#e0e7ff" stroke="#6366f1" stroke-width="1" rx="3"/>
    <text x="28" y="18" text-anchor="middle" font-family="Consolas" font-size="12" fill="#4338ca">3</text>
    <rect width="55" y="28" height="26" fill="#d1fae5" stroke="#10b981" stroke-width="1" rx="3"/>
    <text x="28" y="46" text-anchor="middle" font-family="Consolas" font-size="12" fill="#047857">6</text>
    <rect width="55" y="56" height="26" fill="#fef3c7" stroke="#f59e0b" stroke-width="1" rx="3"/>
    <text x="28" y="74" text-anchor="middle" font-family="Consolas" font-size="12" fill="#b45309">9</text>
    <text x="28" y="96" text-anchor="middle" font-family="Consolas" font-weight="bold" font-size="13" fill="#1e293b">= 18</text>
  </g>

  <!-- axis=1: Sum columns (rightward) -->
  <rect x="420" y="200" width="350" height="180" rx="12" fill="#fefce8" stroke="#facc15" stroke-width="1.5"/>
  <text x="595" y="225" text-anchor="middle" font-family="Consolas" font-weight="bold" font-size="14" fill="#a16207">axis=1 → Sum columns →</text>

  <text x="595" y="252" text-anchor="middle" font-family="Segoe UI" font-size="12" fill="#64748b">"Collapse columns together"</text>

  <g transform="translate(450,268)">
    <rect width="42" height="30" fill="#e0e7ff" stroke="#6366f1" stroke-width="1" rx="3"/>
    <text x="21" y="20" text-anchor="middle" font-family="Consolas" font-size="12" fill="#4338ca">1</text>
    <rect x="44" width="42" height="30" fill="#e0e7ff" stroke="#6366f1" stroke-width="1" rx="3"/>
    <text x="65" y="20" text-anchor="middle" font-family="Consolas" font-size="12" fill="#4338ca">2</text>
    <rect x="88" width="42" height="30" fill="#e0e7ff" stroke="#6366f1" stroke-width="1" rx="3"/>
    <text x="109" y="20" text-anchor="middle" font-family="Consolas" font-size="12" fill="#4338ca">3</text>
    <text x="155" y="20" text-anchor="middle" font-family="Consolas" font-weight="bold" font-size="13" fill="#1e293b">= 6</text>
  </g>
  <g transform="translate(450,302)">
    <rect width="42" height="30" fill="#d1fae5" stroke="#10b981" stroke-width="1" rx="3"/>
    <text x="21" y="20" text-anchor="middle" font-family="Consolas" font-size="12" fill="#047857">4</text>
    <rect x="44" width="42" height="30" fill="#d1fae5" stroke="#10b981" stroke-width="1" rx="3"/>
    <text x="65" y="20" text-anchor="middle" font-family="Consolas" font-size="12" fill="#047857">5</text>
    <rect x="88" width="42" height="30" fill="#d1fae5" stroke="#10b981" stroke-width="1" rx="3"/>
    <text x="109" y="20" text-anchor="middle" font-family="Consolas" font-size="12" fill="#047857">6</text>
    <text x="155" y="20" text-anchor="middle" font-family="Consolas" font-weight="bold" font-size="13" fill="#1e293b">= 15</text>
  </g>
  <g transform="translate(450,336)">
    <rect width="42" height="30" fill="#fef3c7" stroke="#f59e0b" stroke-width="1" rx="3"/>
    <text x="21" y="20" text-anchor="middle" font-family="Consolas" font-size="12" fill="#b45309">7</text>
    <rect x="44" width="42" height="30" fill="#fef3c7" stroke="#f59e0b" stroke-width="1" rx="3"/>
    <text x="65" y="20" text-anchor="middle" font-family="Consolas" font-size="12" fill="#b45309">8</text>
    <rect x="88" width="42" height="30" fill="#fef3c7" stroke="#f59e0b" stroke-width="1" rx="3"/>
    <text x="109" y="20" text-anchor="middle" font-family="Consolas" font-size="12" fill="#b45309">9</text>
    <text x="155" y="20" text-anchor="middle" font-family="Consolas" font-weight="bold" font-size="13" fill="#1e293b">= 24</text>
  </g>
</svg>