<svg xmlns="http://www.w3.org/2000/svg" viewBox="0 0 820 310">
  <rect width="820" height="310" fill="#fafafa" rx="16"/>

  <text x="410" y="28" text-anchor="middle" font-family="Segoe UI" font-size="18" font-weight="bold" fill="#1e293b">keepdims=True: Why It Matters</text>

  <!-- ===== LEFT: WITHOUT keepdims ===== -->
  <rect x="20" y="48" width="385" height="245" rx="12" fill="#fee2e2" stroke="#ef4444" stroke-width="1.5"/>
  <text x="212" y="72" text-anchor="middle" font-family="Consolas" font-weight="bold" font-size="13" fill="#dc2626">Without keepdims ✗</text>
  <text x="212" y="92" text-anchor="middle" font-family="Consolas" font-size="11" fill="#374151">np.max(a, axis=1) → [3, 6, 9]  shape: (3,)</text>
  <text x="212" y="110" text-anchor="middle" font-family="Segoe UI" font-size="11" fill="#64748b">a − max_vals broadcasts as:</text>

  <!-- Matrix a (left side) -->
  <g transform="translate(36,122)">
    <rect x="0" y="0" width="30" height="22" rx="3" fill="#e0e7ff" stroke="#a5b4fc" stroke-width="1"/>
    <rect x="30" y="0" width="30" height="22" rx="3" fill="#e0e7ff" stroke="#a5b4fc" stroke-width="1"/>
    <rect x="60" y="0" width="30" height="22" rx="3" fill="#e0e7ff" stroke="#a5b4fc" stroke-width="1"/>
    <rect x="0" y="22" width="30" height="22" rx="3" fill="#e0e7ff" stroke="#a5b4fc" stroke-width="1"/>
    <rect x="30" y="22" width="30" height="22" rx="3" fill="#e0e7ff" stroke="#a5b4fc" stroke-width="1"/>
    <rect x="60" y="22" width="30" height="22" rx="3" fill="#e0e7ff" stroke="#a5b4fc" stroke-width="1"/>
    <rect x="0" y="44" width="30" height="22" rx="3" fill="#e0e7ff" stroke="#a5b4fc" stroke-width="1"/>
    <rect x="30" y="44" width="30" height="22" rx="3" fill="#e0e7ff" stroke="#a5b4fc" stroke-width="1"/>
    <rect x="60" y="44" width="30" height="22" rx="3" fill="#e0e7ff" stroke="#a5b4fc" stroke-width="1"/>
    <text x="15" y="16" text-anchor="middle" font-family="Consolas" font-size="12" fill="#374151">1</text>
    <text x="45" y="16" text-anchor="middle" font-family="Consolas" font-size="12" fill="#374151">2</text>
    <text x="75" y="16" text-anchor="middle" font-family="Consolas" font-size="12" fill="#374151">3</text>
    <text x="15" y="38" text-anchor="middle" font-family="Consolas" font-size="12" fill="#374151">4</text>
    <text x="45" y="38" text-anchor="middle" font-family="Consolas" font-size="12" fill="#374151">5</text>
    <text x="75" y="38" text-anchor="middle" font-family="Consolas" font-size="12" fill="#374151">6</text>
    <text x="15" y="60" text-anchor="middle" font-family="Consolas" font-size="12" fill="#374151">7</text>
    <text x="45" y="60" text-anchor="middle" font-family="Consolas" font-size="12" fill="#374151">8</text>
    <text x="75" y="60" text-anchor="middle" font-family="Consolas" font-size="12" fill="#374151">9</text>
  </g>

  <text x="140" y="156" font-family="Segoe UI" font-size="16" fill="#374151">−</text>

  <!-- Broadcast max (WRONG: stretched as row) -->
  <g transform="translate(155,122)">
    <rect x="0" y="0" width="30" height="22" rx="3" fill="#fce7f3" stroke="#ec4899" stroke-width="1"/>
    <rect x="30" y="0" width="30" height="22" rx="3" fill="#fce7f3" stroke="#ec4899" stroke-width="1"/>
    <rect x="60" y="0" width="30" height="22" rx="3" fill="#fce7f3" stroke="#ec4899" stroke-width="1"/>
    <rect x="0" y="22" width="30" height="22" rx="3" fill="#fce7f3" stroke="#ec4899" stroke-width="1"/>
    <rect x="30" y="22" width="30" height="22" rx="3" fill="#fce7f3" stroke="#ec4899" stroke-width="1"/>
    <rect x="60" y="22" width="30" height="22" rx="3" fill="#fce7f3" stroke="#ec4899" stroke-width="1"/>
    <rect x="0" y="44" width="30" height="22" rx="3" fill="#fce7f3" stroke="#ec4899" stroke-width="1"/>
    <rect x="30" y="44" width="30" height="22" rx="3" fill="#fce7f3" stroke="#ec4899" stroke-width="1"/>
    <rect x="60" y="44" width="30" height="22" rx="3" fill="#fce7f3" stroke="#ec4899" stroke-width="1"/>
    <text x="15" y="16" text-anchor="middle" font-family="Consolas" font-size="12" fill="#9d174d">3</text>
    <text x="45" y="16" text-anchor="middle" font-family="Consolas" font-size="12" fill="#9d174d">6</text>
    <text x="75" y="16" text-anchor="middle" font-family="Consolas" font-size="12" fill="#9d174d">9</text>
    <text x="15" y="38" text-anchor="middle" font-family="Consolas" font-size="12" fill="#9d174d">3</text>
    <text x="45" y="38" text-anchor="middle" font-family="Consolas" font-size="12" fill="#9d174d">6</text>
    <text x="75" y="38" text-anchor="middle" font-family="Consolas" font-size="12" fill="#9d174d">9</text>
    <text x="15" y="60" text-anchor="middle" font-family="Consolas" font-size="12" fill="#9d174d">3</text>
    <text x="45" y="60" text-anchor="middle" font-family="Consolas" font-size="12" fill="#9d174d">6</text>
    <text x="75" y="60" text-anchor="middle" font-family="Consolas" font-size="12" fill="#9d174d">9</text>
  </g>

  <text x="259" y="156" font-family="Segoe UI" font-size="16" fill="#374151">=</text>

  <!-- WRONG result -->
  <g transform="translate(275,122)">
    <rect x="0" y="0" width="38" height="22" rx="3" fill="#fee2e2" stroke="#ef4444" stroke-width="1"/>
    <rect x="38" y="0" width="38" height="22" rx="3" fill="#fee2e2" stroke="#ef4444" stroke-width="1"/>
    <rect x="76" y="0" width="38" height="22" rx="3" fill="#fee2e2" stroke="#ef4444" stroke-width="1"/>
    <rect x="0" y="22" width="38" height="22" rx="3" fill="#fee2e2" stroke="#ef4444" stroke-width="1"/>
    <rect x="38" y="22" width="38" height="22" rx="3" fill="#fee2e2" stroke="#ef4444" stroke-width="1"/>
    <rect x="76" y="22" width="38" height="22" rx="3" fill="#fee2e2" stroke="#ef4444" stroke-width="1"/>
    <rect x="0" y="44" width="38" height="22" rx="3" fill="#fee2e2" stroke="#ef4444" stroke-width="1"/>
    <rect x="38" y="44" width="38" height="22" rx="3" fill="#fee2e2" stroke="#ef4444" stroke-width="1"/>
    <rect x="76" y="44" width="38" height="22" rx="3" fill="#fee2e2" stroke="#ef4444" stroke-width="1"/>
    <text x="19" y="16" text-anchor="middle" font-family="Consolas" font-size="11" fill="#dc2626">-2</text>
    <text x="57" y="16" text-anchor="middle" font-family="Consolas" font-size="11" fill="#dc2626">-4</text>
    <text x="95" y="16" text-anchor="middle" font-family="Consolas" font-size="11" fill="#dc2626">-6</text>
    <text x="19" y="38" text-anchor="middle" font-family="Consolas" font-size="11" fill="#dc2626">1</text>
    <text x="57" y="38" text-anchor="middle" font-family="Consolas" font-size="11" fill="#dc2626">-1</text>
    <text x="95" y="38" text-anchor="middle" font-family="Consolas" font-size="11" fill="#dc2626">-3</text>
    <text x="19" y="60" text-anchor="middle" font-family="Consolas" font-size="11" fill="#dc2626">4</text>
    <text x="57" y="60" text-anchor="middle" font-family="Consolas" font-size="11" fill="#dc2626">2</text>
    <text x="95" y="60" text-anchor="middle" font-family="Consolas" font-size="11" fill="#dc2626">0</text>
  </g>

  <text x="212" y="208" text-anchor="middle" font-family="Segoe UI" font-weight="600" font-size="12" fill="#dc2626">WRONG! (3,) treated as (1x3) row,</text>
  <text x="212" y="224" text-anchor="middle" font-family="Segoe UI" font-weight="600" font-size="12" fill="#dc2626">subtracted column-wise</text>

  <!-- ===== RIGHT: WITH keepdims ===== -->
  <rect x="420" y="48" width="385" height="245" rx="12" fill="#d1fae5" stroke="#10b981" stroke-width="1.5"/>
  <text x="612" y="72" text-anchor="middle" font-family="Consolas" font-weight="bold" font-size="13" fill="#047857">With keepdims=True ✓</text>
  <text x="612" y="92" text-anchor="middle" font-family="Consolas" font-size="11" fill="#374151">np.max(a, axis=1, keepdims=True)  shape: (3,1)</text>
  <text x="612" y="110" text-anchor="middle" font-family="Segoe UI" font-size="11" fill="#64748b">a − max_vals broadcasts as:</text>

  <!-- Matrix a (right side) -->
  <g transform="translate(436,122)">
    <rect x="0" y="0" width="30" height="22" rx="3" fill="#e0e7ff" stroke="#a5b4fc" stroke-width="1"/>
    <rect x="30" y="0" width="30" height="22" rx="3" fill="#e0e7ff" stroke="#a5b4fc" stroke-width="1"/>
    <rect x="60" y="0" width="30" height="22" rx="3" fill="#e0e7ff" stroke="#a5b4fc" stroke-width="1"/>
    <rect x="0" y="22" width="30" height="22" rx="3" fill="#e0e7ff" stroke="#a5b4fc" stroke-width="1"/>
    <rect x="30" y="22" width="30" height="22" rx="3" fill="#e0e7ff" stroke="#a5b4fc" stroke-width="1"/>
    <rect x="60" y="22" width="30" height="22" rx="3" fill="#e0e7ff" stroke="#a5b4fc" stroke-width="1"/>
    <rect x="0" y="44" width="30" height="22" rx="3" fill="#e0e7ff" stroke="#a5b4fc" stroke-width="1"/>
    <rect x="30" y="44" width="30" height="22" rx="3" fill="#e0e7ff" stroke="#a5b4fc" stroke-width="1"/>
    <rect x="60" y="44" width="30" height="22" rx="3" fill="#e0e7ff" stroke="#a5b4fc" stroke-width="1"/>
    <text x="15" y="16" text-anchor="middle" font-family="Consolas" font-size="12" fill="#374151">1</text>
    <text x="45" y="16" text-anchor="middle" font-family="Consolas" font-size="12" fill="#374151">2</text>
    <text x="75" y="16" text-anchor="middle" font-family="Consolas" font-size="12" fill="#374151">3</text>
    <text x="15" y="38" text-anchor="middle" font-family="Consolas" font-size="12" fill="#374151">4</text>
    <text x="45" y="38" text-anchor="middle" font-family="Consolas" font-size="12" fill="#374151">5</text>
    <text x="75" y="38" text-anchor="middle" font-family="Consolas" font-size="12" fill="#374151">6</text>
    <text x="15" y="60" text-anchor="middle" font-family="Consolas" font-size="12" fill="#374151">7</text>
    <text x="45" y="60" text-anchor="middle" font-family="Consolas" font-size="12" fill="#374151">8</text>
    <text x="75" y="60" text-anchor="middle" font-family="Consolas" font-size="12" fill="#374151">9</text>
  </g>

  <text x="540" y="156" font-family="Segoe UI" font-size="16" fill="#374151">−</text>

  <!-- Broadcast max (CORRECT: stretched as column) -->
  <g transform="translate(555,122)">
    <rect x="0" y="0" width="30" height="22" rx="3" fill="#fef3c7" stroke="#f59e0b" stroke-width="1"/>
    <rect x="30" y="0" width="30" height="22" rx="3" fill="#fef3c7" stroke="#f59e0b" stroke-width="1"/>
    <rect x="60" y="0" width="30" height="22" rx="3" fill="#fef3c7" stroke="#f59e0b" stroke-width="1"/>
    <rect x="0" y="22" width="30" height="22" rx="3" fill="#fef3c7" stroke="#f59e0b" stroke-width="1"/>
    <rect x="30" y="22" width="30" height="22" rx="3" fill="#fef3c7" stroke="#f59e0b" stroke-width="1"/>
    <rect x="60" y="22" width="30" height="22" rx="3" fill="#fef3c7" stroke="#f59e0b" stroke-width="1"/>
    <rect x="0" y="44" width="30" height="22" rx="3" fill="#fef3c7" stroke="#f59e0b" stroke-width="1"/>
    <rect x="30" y="44" width="30" height="22" rx="3" fill="#fef3c7" stroke="#f59e0b" stroke-width="1"/>
    <rect x="60" y="44" width="30" height="22" rx="3" fill="#fef3c7" stroke="#f59e0b" stroke-width="1"/>
    <text x="15" y="16" text-anchor="middle" font-family="Consolas" font-size="12" fill="#92400e">3</text>
    <text x="45" y="16" text-anchor="middle" font-family="Consolas" font-size="12" fill="#92400e">3</text>
    <text x="75" y="16" text-anchor="middle" font-family="Consolas" font-size="12" fill="#92400e">3</text>
    <text x="15" y="38" text-anchor="middle" font-family="Consolas" font-size="12" fill="#92400e">6</text>
    <text x="45" y="38" text-anchor="middle" font-family="Consolas" font-size="12" fill="#92400e">6</text>
    <text x="75" y="38" text-anchor="middle" font-family="Consolas" font-size="12" fill="#92400e">6</text>
    <text x="15" y="60" text-anchor="middle" font-family="Consolas" font-size="12" fill="#92400e">9</text>
    <text x="45" y="60" text-anchor="middle" font-family="Consolas" font-size="12" fill="#92400e">9</text>
    <text x="75" y="60" text-anchor="middle" font-family="Consolas" font-size="12" fill="#92400e">9</text>
  </g>

  <text x="659" y="156" font-family="Segoe UI" font-size="16" fill="#374151">=</text>

  <!-- CORRECT result -->
  <g transform="translate(675,122)">
    <rect x="0" y="0" width="38" height="22" rx="3" fill="#d1fae5" stroke="#10b981" stroke-width="1"/>
    <rect x="38" y="0" width="38" height="22" rx="3" fill="#d1fae5" stroke="#10b981" stroke-width="1"/>
    <rect x="76" y="0" width="38" height="22" rx="3" fill="#d1fae5" stroke="#10b981" stroke-width="1"/>
    <rect x="0" y="22" width="38" height="22" rx="3" fill="#d1fae5" stroke="#10b981" stroke-width="1"/>
    <rect x="38" y="22" width="38" height="22" rx="3" fill="#d1fae5" stroke="#10b981" stroke-width="1"/>
    <rect x="76" y="22" width="38" height="22" rx="3" fill="#d1fae5" stroke="#10b981" stroke-width="1"/>
    <rect x="0" y="44" width="38" height="22" rx="3" fill="#d1fae5" stroke="#10b981" stroke-width="1"/>
    <rect x="38" y="44" width="38" height="22" rx="3" fill="#d1fae5" stroke="#10b981" stroke-width="1"/>
    <rect x="76" y="44" width="38" height="22" rx="3" fill="#d1fae5" stroke="#10b981" stroke-width="1"/>
    <text x="19" y="16" text-anchor="middle" font-family="Consolas" font-size="11" fill="#047857">-2</text>
    <text x="57" y="16" text-anchor="middle" font-family="Consolas" font-size="11" fill="#047857">-1</text>
    <text x="95" y="16" text-anchor="middle" font-family="Consolas" font-size="11" fill="#047857">0</text>
    <text x="19" y="38" text-anchor="middle" font-family="Consolas" font-size="11" fill="#047857">-2</text>
    <text x="57" y="38" text-anchor="middle" font-family="Consolas" font-size="11" fill="#047857">-1</text>
    <text x="95" y="38" text-anchor="middle" font-family="Consolas" font-size="11" fill="#047857">0</text>
    <text x="19" y="60" text-anchor="middle" font-family="Consolas" font-size="11" fill="#047857">-2</text>
    <text x="57" y="60" text-anchor="middle" font-family="Consolas" font-size="11" fill="#047857">-1</text>
    <text x="95" y="60" text-anchor="middle" font-family="Consolas" font-size="11" fill="#047857">0</text>
  </g>

  <text x="612" y="208" text-anchor="middle" font-family="Segoe UI" font-weight="600" font-size="12" fill="#047857">CORRECT! (3,1) column stretched</text>
  <text x="612" y="224" text-anchor="middle" font-family="Segoe UI" font-weight="600" font-size="12" fill="#047857">rightward, row-wise subtraction</text>
</svg>
