<?xml version="1.0" encoding="UTF-8"?>
<svg xmlns="http://www.w3.org/2000/svg" viewBox="0 0 960 470" role="img" aria-labelledby="t d">
  <title id="t">L1 and L2 gradient pressure across five orders of weight magnitude</title>
  <desc id="d">A hand-drawn log-log chart of gradient pressure against weight magnitude at lambda of nought point nought one, from a weight of nought point nought one to one hundred. The L1 pressure is a flat line at nought point nought one for every weight. The L2 pressure is a straight line of slope one, from two ten-thousandths at the smallest weight to two at the largest. They cross at a weight magnitude of nought point five, marked with a dot and a dashed dropline. A side card reads both sides: below nought point five, L1 pushes harder than L2, and once it outweighs the data gradient the weight crosses zero and stays there; above nought point five, L2 pushes harder and keeps pushing harder as the weight grows, reaching two hundred times L1 at a weight of a hundred; and the crossing point moves with lambda rather than being a universal threshold. A band notes that a flat line and a line of slope one are the whole difference between the two penalties, that L1 never eases off on a small weight which is why it reaches zero, and that L2 eases off exactly as the weight becomes harmless.</desc>

  <style><![CDATA[
    :root{--nn-bg:#FAFAF7;--nn-surface:#FFFFFF;--nn-ink:#1A1A1A;--nn-ink-muted:#5C5C5C;--nn-ink-subtle:#9A9A9A;--nn-border:#D9D9D4;--nn-primary:#5B7FBF;--nn-accent:#D98E5F;--nn-success:#5C9E78;--nn-warn:#B8895A;--nn-alert:#C66B5E;--nn-neutral-1:#EAEAE4;--nn-neutral-2:#CFCFC8;--nn-neutral-3:#8E8E88;--nn-on-fill:#FFFDF9;--nn-on-accent:#1A1A1A;}
    @media (prefers-color-scheme:dark){:root{--nn-bg:#0E0F12;--nn-surface:#16181C;--nn-ink:#F2F2EE;--nn-ink-muted:#B4B4AE;--nn-ink-subtle:#6E6E68;--nn-border:#2A2D33;--nn-primary:#8BA8E0;--nn-accent:#E8B088;--nn-success:#7FBF9B;--nn-warn:#D4B58A;--nn-alert:#D88880;--nn-neutral-1:#1F2229;--nn-neutral-2:#2C3038;--nn-neutral-3:#6E6E68;--nn-on-fill:#14161A;--nn-on-accent:#1A1A1A;}}
    .bg{fill:var(--nn-bg);}
    text{dominant-baseline:auto;}
  ]]></style>

  <rect class="bg" width="960" height="470"/>
<text xml:space="preserve" x="40" y="38.24" text-anchor="start" font-family='"Excalifont","Virgil","Segoe Print","Comic Sans MS",ui-rounded,cursive' font-size="22" fill="var(--nn-ink)">Constant pressure against proportional pressure</text><text xml:space="preserve" x="40" y="61.96" text-anchor="start" font-family='"Excalifont","Virgil","Segoe Print","Comic Sans MS",ui-rounded,cursive' font-size="13" fill="var(--nn-ink-muted)">The same two penalties, read across five orders of magnitude of weight instead of two units.</text><path d="M64.78 86.48C256.23 86.97 446.78 87.03 575.74 86.04C591.53 88.47 598.73 93.74 597.43 108.95C602.05 181.74 598.14 255.9 601.64 341.74C602.59 357.66 590.85 368.43 574.76 364.58C390.47 365.36 204.5 366.6 64.43 366.46C49.92 367.41 41.75 356.02 41.35 340.34C40.58 264.24 41.11 181.65 40.4 110.96C39.17 93.34 48.54 86.47 62.36 86.12C64 86 64 86 64 86" fill="var(--nn-surface)" stroke="none"/><path d="M63.71 85.56C223.33 88.13 383.18 87.2 576.39 86.42M64.39 86.27C170.71 86.33 278.12 85.78 575.87 85.79M576 86C590.3 86.19 601.28 95.58 600.09 108.31M577.5 87.94C593.59 85.4 598.5 96.07 598.79 112.06M600.12 109.26C601.11 168.88 601.65 229.33 601.33 340.46M600.5 109.69C600.34 182.52 600.68 253.79 600.61 341.72M600 342C601.04 356.72 593.32 367.44 575.18 365.25M599.16 341.88C599.78 358 591.65 366.92 576.88 363.73M575.68 366.42C374.88 365.4 172.1 366.15 63.21 366.43M575.77 366.26C399.98 367.49 223.65 367.21 64.16 366.19M64 366C46.81 364.56 41.78 356.7 42 341.68M65.94 366.38C47.78 365.43 40.56 357.47 41.17 344.02M38.64 342.4C37.63 284.06 36.74 227.51 41.36 109.93M39.64 342.69C40.65 284.27 40.74 226.8 40.67 109.27M40 110C38.85 94.63 49.19 87.75 63 84.57M38.19 110.77C40.93 95.97 50.07 85.09 64.38 86.88M64 86C64 86 64 86 64 86M64 86C64 86 64 86 64 86" fill="none" stroke="var(--nn-ink)" stroke-width="1.2" stroke-linecap="round" stroke-linejoin="round"/><path d="M45.93 95.91C45.88 186.74 44.77 276.36 44.28 357.93M44.62 94.53C44.63 171.87 44.35 249.67 45.33 357.01" fill="none" stroke="var(--nn-primary)" stroke-width="4" stroke-linecap="round" stroke-linejoin="round"/><text xml:space="preserve" x="62" y="109.96" text-anchor="start" font-family='"Excalifont","Virgil","Segoe Print","Comic Sans MS",ui-rounded,cursive' font-size="13" fill="var(--nn-primary)">Gradient pressure at λ = 0.01,  log-log</text><text xml:space="preserve" x="62" y="129.2" text-anchor="start" font-family='"Excalifont","Virgil","Segoe Print","Comic Sans MS",ui-rounded,cursive' font-size="10" fill="var(--nn-ink-subtle)">how hard each penalty pushes a weight of a given size</text><path d="M122.49 147.73C121.97 193.47 121.77 238.72 121.77 326.17M121.96 148.02C121.5 210.41 121.44 272.86 121.93 325.91" fill="none" stroke="var(--nn-border)" stroke-width="1" stroke-linecap="round" stroke-linejoin="round"/><path d="M116.07 320.22C248.64 319.61 381.11 319.61 574.07 320.18M116.01 320.05C224.6 319.56 333.1 319.62 574.09 320.02" fill="none" stroke="var(--nn-border)" stroke-width="1" stroke-linecap="round" stroke-linejoin="round"/><text xml:space="preserve" x="114" y="177.93" text-anchor="end" font-family='"JetBrains Mono",ui-monospace,Menlo,monospace' font-size="9" fill="var(--nn-ink-subtle)">1</text><text xml:space="preserve" x="114" y="214.02" text-anchor="end" font-family='"JetBrains Mono",ui-monospace,Menlo,monospace' font-size="9" fill="var(--nn-ink-subtle)">0.1</text><text xml:space="preserve" x="114" y="250.11" text-anchor="end" font-family='"JetBrains Mono",ui-monospace,Menlo,monospace' font-size="9" fill="var(--nn-ink-subtle)">0.01</text><text xml:space="preserve" x="114" y="322.28" text-anchor="end" font-family='"JetBrains Mono",ui-monospace,Menlo,monospace' font-size="9" fill="var(--nn-ink-subtle)">0.0001</text><text xml:space="preserve" x="122" y="336.28" text-anchor="middle" font-family='"JetBrains Mono",ui-monospace,Menlo,monospace' font-size="9" fill="var(--nn-ink-subtle)">0.01</text><text xml:space="preserve" x="344" y="336.28" text-anchor="middle" font-family='"JetBrains Mono",ui-monospace,Menlo,monospace' font-size="9" fill="var(--nn-ink-subtle)">1</text><text xml:space="preserve" x="566" y="336.28" text-anchor="middle" font-family='"JetBrains Mono",ui-monospace,Menlo,monospace' font-size="9" fill="var(--nn-ink-subtle)">100</text><text xml:space="preserve" x="344" y="344.28" text-anchor="middle" font-family='"Excalifont","Virgil","Segoe Print","Comic Sans MS",ui-rounded,cursive' font-size="9" fill="var(--nn-ink-subtle)">weight magnitude |w|</text><path d="M122.06 247.92C214.91 247.48 308.05 247.59 565.83 248M122 247.79C214.17 247.58 306.45 247.51 565.99 247.74" fill="none" stroke="var(--nn-accent)" stroke-width="2.4" stroke-linecap="round" stroke-linejoin="round"/><path d="M121.92 309.13C124.71 308.46 127.53 307.19 133.08 305.37M122.03 309.14C125.36 307.96 128.5 306.91 133.21 305.49M133.05 305.62C136.72 304.37 140.28 303.22 144.2 302.04M133.13 305.48C136.12 304.56 139.02 303.55 144.31 302.01M144.11 301.96C147.04 300.81 149.9 300.03 155.14 298.24M144.16 301.85C146.84 301.03 149.54 300.09 155.27 298.24M155.42 298.26C159.43 296.84 163.57 295.44 166.19 294.56M155.41 298.3C158.94 297.01 162.7 295.96 166.37 294.8M166.51 294.5C168.91 293.74 171.32 293.13 177.28 291.23M166.47 294.71C168.86 293.84 171.49 293.06 177.57 291.15M177.61 291.17C181.51 289.73 184.97 288.42 188.58 287.37M177.45 291.05C180.1 290.12 182.68 289.35 188.5 287.59M188.83 287.5C191.99 286.58 194.83 285.38 199.63 283.9M188.58 287.47C192.31 286.31 196.16 285.02 199.77 283.83M199.78 283.92C203.58 282.5 207.77 281.15 210.9 280.39M199.58 283.82C202.38 282.99 204.94 282.1 210.9 280.28M210.63 280.36C213.72 279.38 217.05 278.04 221.95 276.59M210.69 280.26C215.17 278.83 219.32 277.38 221.8 276.64M221.72 276.8C225.3 275.57 228.6 274.37 233 273.06M221.96 276.75C224.67 275.75 227.39 274.89 233.03 273.15M233.2 272.99C237.23 271.87 241.89 270.3 244.06 269.41M232.92 273.16C236.68 271.92 240.36 270.62 244.05 269.49M244.22 269.45C248.29 267.96 252.11 266.96 255.04 265.83M244.03 269.54C246.57 268.55 248.9 267.92 255.13 265.72M255.33 265.78C258.26 264.67 261 263.68 266.33 262.3M255.3 265.93C258.09 264.95 260.85 263.94 266.25 262.13M266.28 262.21C269.55 261.27 272.25 260.07 277.5 258.7M266.2 262.18C269.94 260.91 273.57 259.8 277.39 258.58M277.51 258.72C281.25 257.27 284.96 256.28 288.31 254.98M277.51 258.71C281.66 257.17 285.94 255.83 288.6 255.03M288.39 254.8C291.19 253.93 294.04 253.3 299.77 251.24M288.43 254.92C293 253.48 297.22 252.17 299.63 251.32M299.64 251.35C302.46 250.3 305.36 249.5 310.52 247.92M299.61 251.33C302.53 250.44 305.65 249.41 310.63 247.76M310.65 247.65C312.95 247.23 315.33 246.16 322.02 244M310.69 247.81C313.75 246.89 316.63 245.94 321.82 244.16M321.92 244.19C325.05 242.97 328.69 241.8 333.11 240.46M321.77 244.26C324.24 243.32 326.73 242.7 332.81 240.64M332.78 240.53C335.69 239.9 338.04 238.68 343.79 237.09M332.99 240.5C335.39 239.66 337.8 238.92 344.08 236.99M343.91 236.84C348.05 235.57 352.35 234.33 354.91 233.13M344.11 236.95C346.69 236.08 349.4 235.33 355.17 233.35M355.03 233.5C358.26 232.22 361.34 231.13 366.36 229.72M355.09 233.36C359.42 232.02 363.54 230.67 366.18 229.64M365.99 229.9C370.21 228.29 374.32 226.92 377.18 226.28M366.13 229.71C369.55 228.55 373.07 227.52 377.3 226.03M377.29 225.92C380.3 225.43 383.09 224.34 388.49 222.55M377.27 226.1C380.69 224.94 384.08 223.87 388.48 222.56M388.35 222.58C392.8 221.21 396.81 219.67 399.36 219.13M388.44 222.52C391.78 221.3 395.1 220.38 399.48 218.91M399.49 218.86C403.34 217.74 407.28 216.59 410.67 215.33M399.57 218.94C403.54 217.55 407.56 216.19 410.58 215.42M410.59 215.1C415.11 213.86 419.15 212.59 421.47 211.62M410.6 215.32C413.61 214.3 416.47 213.34 421.79 211.75M421.69 211.76C424.86 210.55 427.73 209.48 432.79 207.86M421.59 211.69C426.06 210.41 430.46 208.97 432.88 208.06M432.6 208.13C436.67 206.99 439.93 205.65 444.05 204.43M432.77 208.18C436.78 206.7 440.54 205.58 443.88 204.38M443.98 204.34C446.92 203.36 450.21 202.49 455.02 200.9M443.89 204.4C446.45 203.67 449.14 202.84 454.99 200.92M455.06 201.02C459.02 199.52 462.86 198.34 465.88 197.13M455.02 200.87C457.86 200.01 460.71 199.02 466.1 197.37M466.11 197.07C469.69 195.98 472.9 195.23 477.38 193.84M466.1 197.19C470.55 195.87 474.98 194.4 477.13 193.68M477.11 193.59C480.02 192.82 483.42 191.87 488.13 190M477.31 193.77C479.64 192.93 482.16 191.91 488.34 190.14M488.34 190.21C490.87 189.36 493.56 188.57 499.31 186.6M488.35 189.97C492.67 188.63 497.01 187.24 499.42 186.42M499.57 186.66C502.16 185.71 505.23 184.57 510.65 182.67M499.52 186.51C501.75 185.62 504.08 184.8 510.53 182.86M510.57 182.89C512.86 181.91 515.17 181.29 521.44 179.1M510.54 182.94C514.52 181.5 518.8 180.16 521.64 179.11M521.74 179.21C525.54 177.9 529.07 176.58 532.47 175.51M521.64 179.32C525.29 178.13 528.76 176.81 532.61 175.53M532.77 175.45C536.54 174.38 540.79 172.76 543.82 171.78M532.6 175.61C536.6 174.5 540.33 173.2 543.71 171.9M543.68 172.1C547.36 170.6 551.45 169.47 554.99 168.21M543.82 171.89C548.2 170.55 552.47 169.14 555 168.39M554.97 168.49C558.19 167.35 561.42 166.46 565.88 164.67M554.94 168.49C558.52 167.28 562.07 165.98 565.92 164.88" fill="none" stroke="var(--nn-primary)" stroke-width="2.4" stroke-linecap="round" stroke-linejoin="round"/><text xml:space="preserve" x="466.1" y="235.03" text-anchor="start" font-family='"JetBrains Mono",ui-monospace,Menlo,monospace' font-size="10" fill="var(--nn-accent)">L1  ·  always 0.01</text><text xml:space="preserve" x="455" y="180.03" text-anchor="start" font-family='"JetBrains Mono",ui-monospace,Menlo,monospace' font-size="10" fill="var(--nn-primary)">L2  ·  0.02 w</text><path d="M312.13 242.53C313.14 242.78 314.22 243.95 314.86 244.79C315.5 245.62 316.09 246.53 315.99 247.55C315.88 248.58 314.98 250.07 314.23 250.93C313.49 251.79 312.62 252.48 311.5 252.72C310.39 252.97 308.5 252.97 307.53 252.41C306.55 251.84 305.9 250.43 305.66 249.33C305.41 248.23 305.72 246.81 306.07 245.8C306.42 244.8 306.83 243.76 307.76 243.3C308.7 242.85 310.93 243.04 311.69 243.06C312.45 243.08 312.24 243.39 312.32 243.4M311.03 242.62C311.92 242.45 313.2 242.87 314.01 243.62C314.81 244.36 315.75 245.81 315.89 247.09C316.03 248.37 315.43 250.35 314.86 251.31C314.29 252.26 313.51 252.77 312.47 252.84C311.42 252.91 309.71 252.27 308.6 251.71C307.5 251.15 306.38 250.42 305.82 249.49C305.27 248.57 304.9 247.2 305.29 246.15C305.68 245.1 307.25 243.75 308.17 243.19C309.1 242.63 310.27 242.75 310.84 242.8C311.41 242.85 311.46 243.49 311.6 243.49" fill="var(--nn-surface)" stroke="none"/><path d="M311.73 243.37C312.67 243.55 314.18 244.62 314.92 245.43C315.67 246.24 316.38 247.08 316.21 248.22C316.04 249.37 314.91 251.51 313.91 252.3C312.92 253.08 311.41 253.07 310.24 252.94C309.06 252.8 307.7 252.1 306.85 251.48C305.99 250.87 305.38 250.17 305.11 249.24C304.84 248.32 304.63 247.04 305.23 245.93C305.83 244.83 307.44 242.99 308.72 242.62C309.99 242.26 312.06 243.55 312.88 243.74C313.71 243.93 313.86 243.7 313.65 243.76M313.18 242.52C313.77 242.74 313.35 244.65 313.71 245.45C314.06 246.25 315.36 246.45 315.3 247.33C315.24 248.2 314.08 249.77 313.35 250.72C312.62 251.67 311.67 252.65 310.91 253.03C310.15 253.41 309.65 253.61 308.78 253C307.9 252.4 306.15 250.47 305.66 249.4C305.16 248.34 305.5 247.63 305.81 246.63C306.12 245.63 306.56 243.87 307.54 243.42C308.52 242.96 311.06 243.74 311.69 243.92C312.32 244.1 311.41 244.35 311.32 244.49" fill="none" stroke="var(--nn-alert)" stroke-width="1.8" stroke-linecap="round" stroke-linejoin="round"/><path d="M311.18 253.81C310.27 279.04 309.94 305.72 311.17 319.47M310.32 253.66C310.73 269.37 310.57 285.3 310.88 319.97" fill="none" stroke="var(--nn-alert)" stroke-width="1.2" stroke-linecap="round" stroke-linejoin="round" stroke-dasharray="9 7"/><text xml:space="preserve" x="318.59" y="305.2" text-anchor="start" font-family='"JetBrains Mono",ui-monospace,Menlo,monospace' font-size="10" fill="var(--nn-alert)">|w| = 0.5</text><path d="M645.43 85.77C696.88 85.41 747.1 85.85 896.53 85.36C910.65 87.5 917.7 95.04 918.94 111.06C922.62 188.09 921.2 262.28 920.59 343.61C917.82 355.43 914.49 368.08 898.06 365.45C809.41 366.69 723.59 365.66 643.81 364.6C627.03 365.98 622.31 356 622.54 343.48C622.23 277.31 621.39 208.47 618.47 109.55C621.97 92.17 629.1 86.68 644.13 85.26C644 86 644 86 644 86" fill="var(--nn-surface)" stroke="none"/><path d="M643.45 87.6C708.52 87.3 773.69 86.29 896.8 86.04M643.64 86.12C695.4 83.32 748.98 83.83 895.2 86.8M896 86C910.96 84.57 918.25 92.34 920.41 110.57M894.2 86.42C910.3 84.14 920.54 95.27 918.95 108.27M920.64 110.92C920.64 180.96 920.71 254.77 918.96 343.5M919.46 110.58C918.51 157.17 918.23 204.76 920.21 341.24M920 342C920.53 356.32 913.68 366.52 895.39 366.27M921.95 341.22C921.23 356 914.14 364.91 894.64 368.21M896.82 366.84C825.02 366.29 752.61 366.84 643.19 365.39M895.29 366.06C818.12 367.81 739.68 367.44 644.18 365.59M644 366C629.47 366.35 618.51 359.77 619.1 342.09M644.51 366.52C627.23 365.23 618.25 359.72 617.84 344.16M620.17 341.16C621.58 257.27 621.01 173.17 619.63 109.95M619.44 342.11C619.93 251.48 618.84 162.76 620.46 110.75M620 110C618.53 94.56 626.22 87.25 643.53 86.67M620.08 108.7C621.18 92.28 626.63 86.67 643.96 86.03M644 86C644 86 644 86 644 86M644 86C644 86 644 86 644 86" fill="none" stroke="var(--nn-ink)" stroke-width="1.2" stroke-linecap="round" stroke-linejoin="round"/><path d="M625.95 95.46C625.01 171.21 625.2 249.53 624.28 357.46M624.89 95.24C626.27 171.61 626.19 248 625.01 356.78" fill="none" stroke="var(--nn-accent)" stroke-width="4" stroke-linecap="round" stroke-linejoin="round"/><text xml:space="preserve" x="642" y="109.96" text-anchor="start" font-family='"Excalifont","Virgil","Segoe Print","Comic Sans MS",ui-rounded,cursive' font-size="13" fill="var(--nn-accent)">What each side means</text><path d="M635.84 121.76C734.18 122.6 831.58 122.08 904.37 121.71M636.05 121.82C706.77 121.71 777.52 121.92 904.01 122.15" fill="none" stroke="var(--nn-border)" stroke-width="1" stroke-linecap="round" stroke-linejoin="round"/><text xml:space="preserve" x="642" y="147.04" text-anchor="start" font-family='"Excalifont","Virgil","Segoe Print","Comic Sans MS",ui-rounded,cursive' font-size="12" fill="var(--nn-accent)">Below |w| = 0.5</text><text xml:space="preserve" x="642" y="165.2" text-anchor="start" font-family='"Excalifont","Virgil","Segoe Print","Comic Sans MS",ui-rounded,cursive' font-size="10" fill="var(--nn-ink)">L1 pushes harder than L2. Once it</text><text xml:space="preserve" x="642" y="181.2" text-anchor="start" font-family='"Excalifont","Virgil","Segoe Print","Comic Sans MS",ui-rounded,cursive' font-size="10" fill="var(--nn-ink)">outweighs the data gradient, the</text><text xml:space="preserve" x="642" y="197.2" text-anchor="start" font-family='"Excalifont","Virgil","Segoe Print","Comic Sans MS",ui-rounded,cursive' font-size="10" fill="var(--nn-ink)">weight crosses zero and stays.</text><path d="M636.16 212.47C727.66 211.25 819.77 211.28 904.28 211.83M635.83 211.76C714.1 211.5 792.54 211.2 903.8 211.85" fill="none" stroke="var(--nn-border)" stroke-width="1" stroke-linecap="round" stroke-linejoin="round"/><text xml:space="preserve" x="642" y="235.04" text-anchor="start" font-family='"Excalifont","Virgil","Segoe Print","Comic Sans MS",ui-rounded,cursive' font-size="12" fill="var(--nn-primary)">Above |w| = 0.5</text><text xml:space="preserve" x="642" y="253.2" text-anchor="start" font-family='"Excalifont","Virgil","Segoe Print","Comic Sans MS",ui-rounded,cursive' font-size="10" fill="var(--nn-ink)">L2 pushes harder, and keeps pushing</text><text xml:space="preserve" x="642" y="269.2" text-anchor="start" font-family='"Excalifont","Virgil","Segoe Print","Comic Sans MS",ui-rounded,cursive' font-size="10" fill="var(--nn-ink)">harder the larger the weight gets.</text><text xml:space="preserve" x="642" y="285.2" text-anchor="start" font-family='"Excalifont","Virgil","Segoe Print","Comic Sans MS",ui-rounded,cursive' font-size="10" fill="var(--nn-primary)">At |w| = 100 it is 200× L1.</text><path d="M635.53 300.24C722.08 300.24 808.9 299.88 904.19 299.96M636.09 300.19C721.92 300.21 807.57 300.34 904.05 300.03" fill="none" stroke="var(--nn-border)" stroke-width="1" stroke-linecap="round" stroke-linejoin="round"/><text xml:space="preserve" x="642" y="321.2" text-anchor="start" font-family='"Excalifont","Virgil","Segoe Print","Comic Sans MS",ui-rounded,cursive' font-size="10" fill="var(--nn-ink-subtle)">The crossing point moves with λ.</text><text xml:space="preserve" x="642" y="337.2" text-anchor="start" font-family='"Excalifont","Virgil","Segoe Print","Comic Sans MS",ui-rounded,cursive' font-size="10" fill="var(--nn-ink-subtle)">It is not a universal threshold.</text><path d="M50.67 392.62C307.31 391.55 564.83 390.99 909.63 392.11C914.78 391.28 922.12 393.77 921.32 401.54C919.66 411.66 918.23 423.83 921.25 442.8C919.88 450.98 918.85 455.82 911.51 454.61C578.61 454.58 250.25 453.93 50.04 453.63C41.26 452.9 41.75 448.04 38.49 445.57C39.66 431.8 40.16 417.86 38.69 402.01C41.14 397.17 43.49 392.09 47.86 394.07C50.33 392 50.33 392 50.33 392" fill="var(--nn-neutral-1)" stroke="none"/><path d="M49.55 391.21C247.12 395.09 443.52 395.68 910.21 391.41M49.95 391.94C374.21 388.28 698.15 388.61 909.37 391.91M909.67 392C914.69 393.14 918.03 397.41 920.66 402.91M910.49 392.41C916.3 390.51 919.68 395.88 920.39 400.56M920.09 403.4C919.56 411.26 919.78 419.16 919.11 443.61M920.62 402.02C919.25 414.45 919.02 428.95 919.8 443.2M920 443.67C920.71 450.66 915.45 453.06 909.22 455.43M919.32 442.58C918.4 449.22 915.11 453.13 910.33 455.02M909.86 454.71C665.17 456.62 419.93 457.74 50.62 453.9M909.96 453.77C696.99 451.21 484.64 450.99 50.52 454.19M50.33 454C44.66 452.28 40.77 450.1 38.8 443.5M49.75 453.47C44.23 456.15 37.81 449.61 40.56 442M41.77 442.71C41.47 432.53 40.5 418.6 39.73 404.19M40.31 443.08C40.4 430.21 39.67 418.18 40.73 402.74M40 402.33C40.57 396.71 43.01 390.01 50.64 392.36M40 404.02C38.75 397.05 45.37 390.59 52.6 392.03M50.33 392C50.33 392 50.33 392 50.33 392M50.33 392C50.33 392 50.33 392 50.33 392" fill="none" stroke="var(--nn-border)" stroke-width="1.2" stroke-linecap="round" stroke-linejoin="round"/><text xml:space="preserve" x="480" y="415.04" text-anchor="middle" font-family='"Excalifont","Virgil","Segoe Print","Comic Sans MS",ui-rounded,cursive' font-size="12" fill="var(--nn-ink)">A flat line and a line of slope 1. That is the whole difference between the two penalties.</text><text xml:space="preserve" x="480" y="438.12" text-anchor="middle" font-family='"Excalifont","Virgil","Segoe Print","Comic Sans MS",ui-rounded,cursive' font-size="11" fill="var(--nn-ink-muted)">L1 never eases off on a small weight, which is why it reaches zero. L2 eases off exactly as the weight becomes harmless.</text>
</svg>
