<?xml version="1.0" encoding="UTF-8"?>
<svg xmlns="http://www.w3.org/2000/svg" viewBox="0 0 960 540" role="img" aria-labelledby="t d">
  <title id="t">Fashion-MNIST confusion matrix from a 2-hidden-layer MLP</title>
  <desc id="d">A 10x10 confusion matrix on the Fashion-MNIST test set. Rows are true classes, columns are predicted classes. The diagonal cells (correct predictions) are shaded green with the count printed inside; off-diagonal cells (errors) are shaded tan with opacity scaled by count. The largest confusions are among the four shirt-like classes (T-shirt/top, Pullover, Coat, Shirt) which a small MLP cannot reliably distinguish. The right panel shows per-class accuracy as horizontal bars sorted by class index, with Shirt as the hardest class at 71 percent and Bag as the easiest at 97.8 percent. A small list at the bottom-right shows the top five most-confused class pairs.</desc>

  <style><![CDATA[
    :root{
      --ce-bg:#FAFAF7;--ce-surface:#FFFFFF;--ce-ink:#1A1A1A;--ce-ink-muted:#5C5C5C;--ce-ink-subtle:#9A9A9A;
      --ce-border:#D9D9D4;--ce-primary:#5B7FBF;--ce-accent:#D98E5F;
      --ce-success:#5C9E78;--ce-warn:#B8895A;--ce-alert:#C66B5E;--ce-neutral-1:#EAEAE4;
      --ce-grid:rgba(26,26,26,0.06);
    }
    @media (prefers-color-scheme: dark){
      :root{
        --ce-bg:#0E0F12;--ce-surface:#16181C;--ce-ink:#F2F2EE;--ce-ink-muted:#B4B4AE;--ce-ink-subtle:#6E6E68;
        --ce-border:#2A2D33;--ce-primary:#8BA8E0;--ce-accent:#E8B088;
        --ce-success:#7FBF9B;--ce-warn:#D4B58A;--ce-alert:#D88880;--ce-neutral-1:#1F2229;
        --ce-grid:rgba(241,238,232,0.08);
      }
    }
    text{font-family:Inter,system-ui,sans-serif;}
    .bg{fill:var(--ce-bg);}
    .title{font-weight:600;font-size:22px;fill:var(--ce-ink);}
    .subtitle{font-size:13px;fill:var(--ce-ink-muted);}
    .footer{font-size:11px;fill:var(--ce-ink-subtle);}

    .panel{fill:var(--ce-surface);stroke:var(--ce-border);stroke-width:1;}
    .panel-head{font-weight:700;font-size:14px;fill:var(--ce-ink);}
    .panel-sub{font-size:11px;fill:var(--ce-ink-muted);}

    .cell-base{fill:var(--ce-surface);stroke:var(--ce-border);stroke-width:0.6;}
    .cell-diag{fill:var(--ce-success);}
    .cell-off {fill:var(--ce-warn);}
    .cell-num {font-family:"JetBrains Mono",ui-monospace,monospace;font-size:9.5px;font-weight:700;fill:var(--ce-ink);}
    .cell-num-light{font-family:"JetBrains Mono",ui-monospace,monospace;font-size:9.5px;font-weight:700;fill:#FFFFFF;}
    .axis-name {font-size:10px;fill:var(--ce-ink-muted);}
    .axis-name-bold {font-size:10.5px;font-weight:700;fill:var(--ce-ink-muted);}

    .side-head{font-weight:700;font-size:12px;fill:var(--ce-ink);}
    .side-sub{font-size:10.5px;fill:var(--ce-ink-muted);}
    .side-mono{font-family:"JetBrains Mono",ui-monospace,monospace;font-size:10.5px;font-weight:600;fill:var(--ce-ink);}
    .bar-bg{fill:var(--ce-neutral-1);}
    .bar-good{fill:var(--ce-success);}
    .bar-ok{fill:var(--ce-warn);}
    .bar-bad{fill:var(--ce-alert);}
    .bar-label{font-size:10px;fill:var(--ce-ink);}
    .bar-pct{font-family:"JetBrains Mono",ui-monospace,monospace;font-size:10px;font-weight:700;fill:var(--ce-ink);}
    .confused-mono{font-family:"JetBrains Mono",ui-monospace,monospace;font-size:10px;font-weight:600;fill:var(--ce-ink);}

    .legend-text{font-size:10px;fill:var(--ce-ink-muted);}
  ]]></style>

  <rect class="bg" width="960" height="540"/>

  <text class="title"    x="48" y="40">Project 03 · Fashion-MNIST confusion matrix</text>
  <text class="subtitle" x="48" y="60">Same architecture as project 01; the harder dataset exposes the shirt-vs-pullover-vs-coat-vs-T-shirt blur the model cannot resolve.</text>

  <!-- ============================ LEFT: 10x10 confusion matrix ============================ -->
  <rect class="panel" x="24" y="80" width="520" height="420" rx="10"/>
  <text class="panel-head" x="40" y="102">Test-set confusion · 10 000 samples · 88.9% overall accuracy</text>
  <text class="panel-sub"  x="40" y="118">rows = true class, columns = predicted class</text>

  <!-- Column header label -->
  <text class="axis-name-bold" x="269" y="142" text-anchor="middle">predicted class →</text>
  <!-- Row header label, vertical -->
  <text class="axis-name-bold" x="55" y="305" text-anchor="middle" transform="rotate(-90 55 305)">true class →</text>

  <!-- Column class indices (top of grid) -->
  <text class="axis-name" x="139" y="172" text-anchor="middle">0</text>
  <text class="axis-name" x="169" y="172" text-anchor="middle">1</text>
  <text class="axis-name" x="199" y="172" text-anchor="middle">2</text>
  <text class="axis-name" x="229" y="172" text-anchor="middle">3</text>
  <text class="axis-name" x="259" y="172" text-anchor="middle">4</text>
  <text class="axis-name" x="289" y="172" text-anchor="middle">5</text>
  <text class="axis-name" x="319" y="172" text-anchor="middle">6</text>
  <text class="axis-name" x="349" y="172" text-anchor="middle">7</text>
  <text class="axis-name" x="379" y="172" text-anchor="middle">8</text>
  <text class="axis-name" x="409" y="172" text-anchor="middle">9</text>

  <!-- Row labels (class names + index) -->
  <text class="axis-name" x="120" y="200" text-anchor="end">T-shirt (0)</text>
  <text class="axis-name" x="120" y="230" text-anchor="end">Trouser (1)</text>
  <text class="axis-name" x="120" y="260" text-anchor="end">Pullover (2)</text>
  <text class="axis-name" x="120" y="290" text-anchor="end">Dress (3)</text>
  <text class="axis-name" x="120" y="320" text-anchor="end">Coat (4)</text>
  <text class="axis-name" x="120" y="350" text-anchor="end">Sandal (5)</text>
  <text class="axis-name" x="120" y="380" text-anchor="end">Shirt (6)</text>
  <text class="axis-name" x="120" y="410" text-anchor="end">Sneaker (7)</text>
  <text class="axis-name" x="120" y="440" text-anchor="end">Bag (8)</text>
  <text class="axis-name" x="120" y="470" text-anchor="end">Ankle boot (9)</text>

  <!-- ====== Confusion cells. Cell at (row, col) → x = 124+30*col, y = 180+30*row ====== -->
  <!-- Color rule: diagonal (correct) = green; off-diagonal = tan; opacity = min(count/120, 0.85) for off, 1.0 for diag with count>=700 -->

  <!-- Row 0 (T-shirt): 840, 0, 30, 30, 10, 0, 85, 0, 5, 0 -->
  <rect class="cell-diag" x="124" y="180" width="30" height="30" opacity="0.95"/>
  <text class="cell-num-light" x="139" y="199" text-anchor="middle">840</text>
  <rect class="cell-base" x="154" y="180" width="30" height="30"/>
  <rect class="cell-off"  x="184" y="180" width="30" height="30" opacity="0.25"/>
  <text class="cell-num" x="199" y="199" text-anchor="middle">30</text>
  <rect class="cell-off"  x="214" y="180" width="30" height="30" opacity="0.25"/>
  <text class="cell-num" x="229" y="199" text-anchor="middle">30</text>
  <rect class="cell-off"  x="244" y="180" width="30" height="30" opacity="0.10"/>
  <text class="cell-num" x="259" y="199" text-anchor="middle">10</text>
  <rect class="cell-base" x="274" y="180" width="30" height="30"/>
  <rect class="cell-off"  x="304" y="180" width="30" height="30" opacity="0.72"/>
  <text class="cell-num-light" x="319" y="199" text-anchor="middle">85</text>
  <rect class="cell-base" x="334" y="180" width="30" height="30"/>
  <rect class="cell-off"  x="364" y="180" width="30" height="30" opacity="0.06"/>
  <text class="cell-num" x="379" y="199" text-anchor="middle">5</text>
  <rect class="cell-base" x="394" y="180" width="30" height="30"/>

  <!-- Row 1 (Trouser): 5, 975, 1, 14, 2, 0, 3, 0, 0, 0 -->
  <rect class="cell-off"  x="124" y="210" width="30" height="30" opacity="0.06"/>
  <text class="cell-num" x="139" y="229" text-anchor="middle">5</text>
  <rect class="cell-diag" x="154" y="210" width="30" height="30" opacity="1.0"/>
  <text class="cell-num-light" x="169" y="229" text-anchor="middle">975</text>
  <rect class="cell-off"  x="184" y="210" width="30" height="30" opacity="0.04"/>
  <text class="cell-num" x="199" y="229" text-anchor="middle">1</text>
  <rect class="cell-off"  x="214" y="210" width="30" height="30" opacity="0.14"/>
  <text class="cell-num" x="229" y="229" text-anchor="middle">14</text>
  <rect class="cell-off"  x="244" y="210" width="30" height="30" opacity="0.04"/>
  <text class="cell-num" x="259" y="229" text-anchor="middle">2</text>
  <rect class="cell-base" x="274" y="210" width="30" height="30"/>
  <rect class="cell-off"  x="304" y="210" width="30" height="30" opacity="0.04"/>
  <text class="cell-num" x="319" y="229" text-anchor="middle">3</text>
  <rect class="cell-base" x="334" y="210" width="30" height="30"/>
  <rect class="cell-base" x="364" y="210" width="30" height="30"/>
  <rect class="cell-base" x="394" y="210" width="30" height="30"/>

  <!-- Row 2 (Pullover): 30, 1, 810, 8, 100, 0, 46, 0, 5, 0 -->
  <rect class="cell-off"  x="124" y="240" width="30" height="30" opacity="0.25"/>
  <text class="cell-num" x="139" y="259" text-anchor="middle">30</text>
  <rect class="cell-off"  x="154" y="240" width="30" height="30" opacity="0.04"/>
  <text class="cell-num" x="169" y="259" text-anchor="middle">1</text>
  <rect class="cell-diag" x="184" y="240" width="30" height="30" opacity="0.90"/>
  <text class="cell-num-light" x="199" y="259" text-anchor="middle">810</text>
  <rect class="cell-off"  x="214" y="240" width="30" height="30" opacity="0.08"/>
  <text class="cell-num" x="229" y="259" text-anchor="middle">8</text>
  <rect class="cell-off"  x="244" y="240" width="30" height="30" opacity="0.85"/>
  <text class="cell-num-light" x="259" y="259" text-anchor="middle">100</text>
  <rect class="cell-base" x="274" y="240" width="30" height="30"/>
  <rect class="cell-off"  x="304" y="240" width="30" height="30" opacity="0.40"/>
  <text class="cell-num" x="319" y="259" text-anchor="middle">46</text>
  <rect class="cell-base" x="334" y="240" width="30" height="30"/>
  <rect class="cell-off"  x="364" y="240" width="30" height="30" opacity="0.06"/>
  <text class="cell-num" x="379" y="259" text-anchor="middle">5</text>
  <rect class="cell-base" x="394" y="240" width="30" height="30"/>

  <!-- Row 3 (Dress): 30, 4, 12, 910, 35, 0, 9, 0, 0, 0 -->
  <rect class="cell-off"  x="124" y="270" width="30" height="30" opacity="0.25"/>
  <text class="cell-num" x="139" y="289" text-anchor="middle">30</text>
  <rect class="cell-off"  x="154" y="270" width="30" height="30" opacity="0.05"/>
  <text class="cell-num" x="169" y="289" text-anchor="middle">4</text>
  <rect class="cell-off"  x="184" y="270" width="30" height="30" opacity="0.12"/>
  <text class="cell-num" x="199" y="289" text-anchor="middle">12</text>
  <rect class="cell-diag" x="214" y="270" width="30" height="30" opacity="1.0"/>
  <text class="cell-num-light" x="229" y="289" text-anchor="middle">910</text>
  <rect class="cell-off"  x="244" y="270" width="30" height="30" opacity="0.30"/>
  <text class="cell-num" x="259" y="289" text-anchor="middle">35</text>
  <rect class="cell-base" x="274" y="270" width="30" height="30"/>
  <rect class="cell-off"  x="304" y="270" width="30" height="30" opacity="0.08"/>
  <text class="cell-num" x="319" y="289" text-anchor="middle">9</text>
  <rect class="cell-base" x="334" y="270" width="30" height="30"/>
  <rect class="cell-base" x="364" y="270" width="30" height="30"/>
  <rect class="cell-base" x="394" y="270" width="30" height="30"/>

  <!-- Row 4 (Coat): 10, 1, 80, 30, 830, 0, 45, 0, 4, 0 -->
  <rect class="cell-off"  x="124" y="300" width="30" height="30" opacity="0.10"/>
  <text class="cell-num" x="139" y="319" text-anchor="middle">10</text>
  <rect class="cell-off"  x="154" y="300" width="30" height="30" opacity="0.04"/>
  <text class="cell-num" x="169" y="319" text-anchor="middle">1</text>
  <rect class="cell-off"  x="184" y="300" width="30" height="30" opacity="0.68"/>
  <text class="cell-num-light" x="199" y="319" text-anchor="middle">80</text>
  <rect class="cell-off"  x="214" y="300" width="30" height="30" opacity="0.25"/>
  <text class="cell-num" x="229" y="319" text-anchor="middle">30</text>
  <rect class="cell-diag" x="244" y="300" width="30" height="30" opacity="0.92"/>
  <text class="cell-num-light" x="259" y="319" text-anchor="middle">830</text>
  <rect class="cell-base" x="274" y="300" width="30" height="30"/>
  <rect class="cell-off"  x="304" y="300" width="30" height="30" opacity="0.38"/>
  <text class="cell-num" x="319" y="319" text-anchor="middle">45</text>
  <rect class="cell-base" x="334" y="300" width="30" height="30"/>
  <rect class="cell-off"  x="364" y="300" width="30" height="30" opacity="0.05"/>
  <text class="cell-num" x="379" y="319" text-anchor="middle">4</text>
  <rect class="cell-base" x="394" y="300" width="30" height="30"/>

  <!-- Row 5 (Sandal): 0, 0, 0, 0, 0, 960, 0, 25, 5, 10 -->
  <rect class="cell-base" x="124" y="330" width="30" height="30"/>
  <rect class="cell-base" x="154" y="330" width="30" height="30"/>
  <rect class="cell-base" x="184" y="330" width="30" height="30"/>
  <rect class="cell-base" x="214" y="330" width="30" height="30"/>
  <rect class="cell-base" x="244" y="330" width="30" height="30"/>
  <rect class="cell-diag" x="274" y="330" width="30" height="30" opacity="1.0"/>
  <text class="cell-num-light" x="289" y="349" text-anchor="middle">960</text>
  <rect class="cell-base" x="304" y="330" width="30" height="30"/>
  <rect class="cell-off"  x="334" y="330" width="30" height="30" opacity="0.21"/>
  <text class="cell-num" x="349" y="349" text-anchor="middle">25</text>
  <rect class="cell-off"  x="364" y="330" width="30" height="30" opacity="0.06"/>
  <text class="cell-num" x="379" y="349" text-anchor="middle">5</text>
  <rect class="cell-off"  x="394" y="330" width="30" height="30" opacity="0.10"/>
  <text class="cell-num" x="409" y="349" text-anchor="middle">10</text>

  <!-- Row 6 (Shirt): 100, 1, 95, 25, 65, 0, 710, 0, 4, 0 -->
  <rect class="cell-off"  x="124" y="360" width="30" height="30" opacity="0.85"/>
  <text class="cell-num-light" x="139" y="379" text-anchor="middle">100</text>
  <rect class="cell-off"  x="154" y="360" width="30" height="30" opacity="0.04"/>
  <text class="cell-num" x="169" y="379" text-anchor="middle">1</text>
  <rect class="cell-off"  x="184" y="360" width="30" height="30" opacity="0.80"/>
  <text class="cell-num-light" x="199" y="379" text-anchor="middle">95</text>
  <rect class="cell-off"  x="214" y="360" width="30" height="30" opacity="0.21"/>
  <text class="cell-num" x="229" y="379" text-anchor="middle">25</text>
  <rect class="cell-off"  x="244" y="360" width="30" height="30" opacity="0.55"/>
  <text class="cell-num-light" x="259" y="379" text-anchor="middle">65</text>
  <rect class="cell-base" x="274" y="360" width="30" height="30"/>
  <rect class="cell-diag" x="304" y="360" width="30" height="30" opacity="0.78"/>
  <text class="cell-num-light" x="319" y="379" text-anchor="middle">710</text>
  <rect class="cell-base" x="334" y="360" width="30" height="30"/>
  <rect class="cell-off"  x="364" y="360" width="30" height="30" opacity="0.05"/>
  <text class="cell-num" x="379" y="379" text-anchor="middle">4</text>
  <rect class="cell-base" x="394" y="360" width="30" height="30"/>

  <!-- Row 7 (Sneaker): 0, 0, 0, 0, 0, 20, 0, 950, 2, 28 -->
  <rect class="cell-base" x="124" y="390" width="30" height="30"/>
  <rect class="cell-base" x="154" y="390" width="30" height="30"/>
  <rect class="cell-base" x="184" y="390" width="30" height="30"/>
  <rect class="cell-base" x="214" y="390" width="30" height="30"/>
  <rect class="cell-base" x="244" y="390" width="30" height="30"/>
  <rect class="cell-off"  x="274" y="390" width="30" height="30" opacity="0.17"/>
  <text class="cell-num" x="289" y="409" text-anchor="middle">20</text>
  <rect class="cell-base" x="304" y="390" width="30" height="30"/>
  <rect class="cell-diag" x="334" y="390" width="30" height="30" opacity="1.0"/>
  <text class="cell-num-light" x="349" y="409" text-anchor="middle">950</text>
  <rect class="cell-off"  x="364" y="390" width="30" height="30" opacity="0.04"/>
  <text class="cell-num" x="379" y="409" text-anchor="middle">2</text>
  <rect class="cell-off"  x="394" y="390" width="30" height="30" opacity="0.24"/>
  <text class="cell-num" x="409" y="409" text-anchor="middle">28</text>

  <!-- Row 8 (Bag): 5, 1, 3, 2, 1, 3, 2, 3, 978, 2 -->
  <rect class="cell-off"  x="124" y="420" width="30" height="30" opacity="0.06"/>
  <text class="cell-num" x="139" y="439" text-anchor="middle">5</text>
  <rect class="cell-off"  x="154" y="420" width="30" height="30" opacity="0.04"/>
  <text class="cell-num" x="169" y="439" text-anchor="middle">1</text>
  <rect class="cell-off"  x="184" y="420" width="30" height="30" opacity="0.04"/>
  <text class="cell-num" x="199" y="439" text-anchor="middle">3</text>
  <rect class="cell-off"  x="214" y="420" width="30" height="30" opacity="0.04"/>
  <text class="cell-num" x="229" y="439" text-anchor="middle">2</text>
  <rect class="cell-off"  x="244" y="420" width="30" height="30" opacity="0.04"/>
  <text class="cell-num" x="259" y="439" text-anchor="middle">1</text>
  <rect class="cell-off"  x="274" y="420" width="30" height="30" opacity="0.04"/>
  <text class="cell-num" x="289" y="439" text-anchor="middle">3</text>
  <rect class="cell-off"  x="304" y="420" width="30" height="30" opacity="0.04"/>
  <text class="cell-num" x="319" y="439" text-anchor="middle">2</text>
  <rect class="cell-off"  x="334" y="420" width="30" height="30" opacity="0.04"/>
  <text class="cell-num" x="349" y="439" text-anchor="middle">3</text>
  <rect class="cell-diag" x="364" y="420" width="30" height="30" opacity="1.0"/>
  <text class="cell-num-light" x="379" y="439" text-anchor="middle">978</text>
  <rect class="cell-off"  x="394" y="420" width="30" height="30" opacity="0.04"/>
  <text class="cell-num" x="409" y="439" text-anchor="middle">2</text>

  <!-- Row 9 (Ankle boot): 0, 0, 0, 0, 0, 9, 0, 40, 5, 946 -->
  <rect class="cell-base" x="124" y="450" width="30" height="30"/>
  <rect class="cell-base" x="154" y="450" width="30" height="30"/>
  <rect class="cell-base" x="184" y="450" width="30" height="30"/>
  <rect class="cell-base" x="214" y="450" width="30" height="30"/>
  <rect class="cell-base" x="244" y="450" width="30" height="30"/>
  <rect class="cell-off"  x="274" y="450" width="30" height="30" opacity="0.08"/>
  <text class="cell-num" x="289" y="469" text-anchor="middle">9</text>
  <rect class="cell-base" x="304" y="450" width="30" height="30"/>
  <rect class="cell-off"  x="334" y="450" width="30" height="30" opacity="0.34"/>
  <text class="cell-num" x="349" y="469" text-anchor="middle">40</text>
  <rect class="cell-off"  x="364" y="450" width="30" height="30" opacity="0.06"/>
  <text class="cell-num" x="379" y="469" text-anchor="middle">5</text>
  <rect class="cell-diag" x="394" y="450" width="30" height="30" opacity="1.0"/>
  <text class="cell-num-light" x="409" y="469" text-anchor="middle">946</text>

  <!-- Heatmap legend (bottom of left panel) -->
  <g transform="translate(40, 488)">
    <rect class="cell-diag" x="0"  y="0" width="14" height="10" opacity="1.0"/>
    <text class="legend-text" x="18" y="9">correct (diagonal)</text>
    <rect class="cell-off"  x="120" y="0" width="14" height="10" opacity="0.75"/>
    <text class="legend-text" x="138" y="9">error · opacity ∝ count</text>
  </g>

  <!-- ============================ RIGHT: per-class accuracy + most-confused pairs ============================ -->
  <rect class="panel" x="560" y="80" width="376" height="420" rx="10"/>
  <text class="panel-head" x="576" y="102">Per-class accuracy</text>
  <text class="panel-sub"  x="576" y="118">sorted by class index; Shirt is the hard one</text>

  <!-- 10 horizontal bars. Bar area: x=120 to x=360 (width 240 = 100%). y per row: 24px. -->
  <!-- Row template: text label on left, bar in middle, % on right. -->
  <g transform="translate(576, 132)">
    <!-- T-shirt 84.0 -->
    <text class="bar-label" x="120" y="11" text-anchor="end">T-shirt/top</text>
    <rect class="bar-bg"   x="126" y="2" width="180" height="14" rx="2"/>
    <rect class="bar-ok"   x="126" y="2" width="151.2" height="14" rx="2"/>
    <text class="bar-pct"  x="312" y="13">84.0%</text>

    <!-- Trouser 97.5 -->
    <text class="bar-label" x="120" y="35" text-anchor="end">Trouser</text>
    <rect class="bar-bg"   x="126" y="26" width="180" height="14" rx="2"/>
    <rect class="bar-good" x="126" y="26" width="175.5" height="14" rx="2"/>
    <text class="bar-pct"  x="312" y="37">97.5%</text>

    <!-- Pullover 81.0 -->
    <text class="bar-label" x="120" y="59" text-anchor="end">Pullover</text>
    <rect class="bar-bg"   x="126" y="50" width="180" height="14" rx="2"/>
    <rect class="bar-ok"   x="126" y="50" width="145.8" height="14" rx="2"/>
    <text class="bar-pct"  x="312" y="61">81.0%</text>

    <!-- Dress 91.0 -->
    <text class="bar-label" x="120" y="83" text-anchor="end">Dress</text>
    <rect class="bar-bg"   x="126" y="74" width="180" height="14" rx="2"/>
    <rect class="bar-good" x="126" y="74" width="163.8" height="14" rx="2"/>
    <text class="bar-pct"  x="312" y="85">91.0%</text>

    <!-- Coat 83.0 -->
    <text class="bar-label" x="120" y="107" text-anchor="end">Coat</text>
    <rect class="bar-bg"   x="126" y="98" width="180" height="14" rx="2"/>
    <rect class="bar-ok"   x="126" y="98" width="149.4" height="14" rx="2"/>
    <text class="bar-pct"  x="312" y="109">83.0%</text>

    <!-- Sandal 96.0 -->
    <text class="bar-label" x="120" y="131" text-anchor="end">Sandal</text>
    <rect class="bar-bg"   x="126" y="122" width="180" height="14" rx="2"/>
    <rect class="bar-good" x="126" y="122" width="172.8" height="14" rx="2"/>
    <text class="bar-pct"  x="312" y="133">96.0%</text>

    <!-- Shirt 71.0 (worst, highlighted alert) -->
    <text class="bar-label" x="120" y="155" text-anchor="end" style="fill:var(--ce-alert);font-weight:700;">Shirt</text>
    <rect class="bar-bg"   x="126" y="146" width="180" height="14" rx="2"/>
    <rect class="bar-bad"  x="126" y="146" width="127.8" height="14" rx="2"/>
    <text class="bar-pct"  x="312" y="157" style="fill:var(--ce-alert);">71.0%</text>

    <!-- Sneaker 95.0 -->
    <text class="bar-label" x="120" y="179" text-anchor="end">Sneaker</text>
    <rect class="bar-bg"   x="126" y="170" width="180" height="14" rx="2"/>
    <rect class="bar-good" x="126" y="170" width="171" height="14" rx="2"/>
    <text class="bar-pct"  x="312" y="181">95.0%</text>

    <!-- Bag 97.8 -->
    <text class="bar-label" x="120" y="203" text-anchor="end">Bag</text>
    <rect class="bar-bg"   x="126" y="194" width="180" height="14" rx="2"/>
    <rect class="bar-good" x="126" y="194" width="176.04" height="14" rx="2"/>
    <text class="bar-pct"  x="312" y="205">97.8%</text>

    <!-- Ankle boot 94.6 -->
    <text class="bar-label" x="120" y="227" text-anchor="end">Ankle boot</text>
    <rect class="bar-bg"   x="126" y="218" width="180" height="14" rx="2"/>
    <rect class="bar-good" x="126" y="218" width="170.28" height="14" rx="2"/>
    <text class="bar-pct"  x="312" y="229">94.6%</text>
  </g>

  <!-- Most-confused pairs box -->
  <text class="side-head" x="576" y="392">Top 5 most-confused pairs</text>
  <text class="side-sub"  x="576" y="408">true class → predicted class</text>
  <g transform="translate(576, 418)">
    <rect fill="var(--ce-neutral-1)" stroke="var(--ce-border)" stroke-width="1" x="0" y="0" width="344" height="76" rx="6"/>
    <text class="confused-mono" x="12" y="16">Pullover  → Coat       100</text>
    <text class="confused-mono" x="12" y="30">Shirt     → T-shirt    100</text>
    <text class="confused-mono" x="12" y="44">Shirt     → Pullover    95</text>
    <text class="confused-mono" x="12" y="58">T-shirt   → Shirt       85</text>
    <text class="confused-mono" x="12" y="72">Coat      → Pullover    80</text>
  </g>
</svg>
